<?xml version="1.0" encoding="utf-8"?>

<!-- License Agreement at http://iconmonstr.com/license/ -->

<!DOCTYPE svg PUBLIC "-//W3C//DTD SVG 1.1//EN" "http://www.w3.org/Graphics/SVG/1.1/DTD/svg11.dtd">
<svg version="1.1" xmlns="http://www.w3.org/2000/svg" xmlns:xlink="http://www.w3.org/1999/xlink" x="0px" y="0px"
	 width="36px" height="36px" viewBox="0 0 512 512" enable-background="new 0 0 512 512" xml:space="preserve">
<path id="christmas-gift-icon" d="M231,462H68.125V257.669H231V462z M231,160.669H50v67h181V160.669z M281,462h162.875V257.669H281
	V462z M281,160.669v67h181v-67H281z M297.884,115.669h37.032c27.667,0,26.667-35.669,5.426-35.669
	C323.958,80,311.271,95.335,297.884,115.669z M349.342,50c63.574,0,62.908,90.669-0.426,90.669c-37.999,0-91.166,0-91.166,0
	C270.423,113.044,295.916,50,349.342,50z M175.158,80c-21.241,0-22.241,35.669,5.426,35.669h37.032
	C204.229,95.335,191.542,80,175.158,80z M166.158,50c53.426,0,78.919,63.044,91.592,90.669c0,0-53.167,0-91.166,0
	C103.25,140.669,102.584,50,166.158,50z"/>
</svg>
