<?xml version="1.0" encoding="utf-8"?>
<!-- Generator: Adobe Illustrator 16.0.0, SVG Export Plug-In . SVG Version: 6.00 Build 0)  -->
<!DOCTYPE svg PUBLIC "-//W3C//DTD SVG 1.1//EN" "http://www.w3.org/Graphics/SVG/1.1/DTD/svg11.dtd">
<svg version="1.1" id="Layer_1" xmlns="http://www.w3.org/2000/svg" xmlns:xlink="http://www.w3.org/1999/xlink" x="0px" y="0px"
	 width="36px" height="36px" viewBox="0 0 36 36" enable-background="new 0 0 36 36" xml:space="preserve">
<path id="github-icon" d="M18,3.873c-7.999,0-14.484,6.485-14.484,14.484c0,6.399,4.15,11.83,9.906,13.744
	c0.724,0.135,0.957-0.313,0.957-0.697v-2.696C10.35,29.585,9.511,27,9.511,27c-0.658-1.675-1.608-2.121-1.608-2.121
	c-1.314-0.897,0.099-0.88,0.099-0.88c1.455,0.103,2.221,1.493,2.221,1.493c1.292,2.214,3.388,1.574,4.215,1.203
	c0.129-0.936,0.504-1.574,0.919-1.936c-3.218-0.366-6.599-1.608-6.599-7.159c0-1.582,0.565-2.874,1.492-3.887
	C10.1,13.348,9.605,11.875,10.39,9.88c0,0,1.216-0.389,3.984,1.485c1.156-0.321,2.396-0.482,3.626-0.488
	c1.23,0.006,2.472,0.167,3.628,0.488c2.766-1.875,3.979-1.485,3.979-1.485c0.789,1.995,0.293,3.468,0.143,3.833
	c0.93,1.014,1.491,2.305,1.491,3.887c0,5.563-3.389,6.788-6.614,7.147c0.52,0.448,0.994,1.331,0.994,2.682c0,1.938,0,3.499,0,3.975
	c0,0.387,0.232,0.838,0.967,0.696c5.752-1.918,9.896-7.345,9.896-13.743C32.484,10.358,25.999,3.873,18,3.873z"/>
</svg>
