<?xml version="1.0" encoding="utf-8"?>
<!-- Generator: Adobe Illustrator 16.0.0, SVG Export Plug-In . SVG Version: 6.00 Build 0)  -->
<!DOCTYPE svg PUBLIC "-//W3C//DTD SVG 1.1//EN" "http://www.w3.org/Graphics/SVG/1.1/DTD/svg11.dtd">
<svg version="1.1" id="Layer_1" xmlns="http://www.w3.org/2000/svg" xmlns:xlink="http://www.w3.org/1999/xlink" x="0px" y="0px"
	 width="60px" height="60px" viewBox="0 0 80 80" enable-background="new 0 0 80 80" xml:space="preserve">
<g>
	<path id="path5169" opacity="0.7854" fill="#3FB5AD" enable-background="new    " d="M33.16,2.1l-9.5,16.484
		c0.865,6.254-0.243,12.712-3.511,18.382c-3.267,5.67-11.81,7.678-17.574,10.062l16.484,9.501
		c6.253-0.862,12.674,0.206,18.382,3.512c5.632,3.269,7.681,11.812,10.064,17.576l9.499-16.487
		c-0.863-6.25,0.208-12.673,3.511-18.381c3.27-5.633,11.811-7.679,17.576-10.063l-16.484-9.5
		c-6.254,0.863-12.675-0.208-18.383-3.512C37.592,16.426,35.564,7.864,33.16,2.1z M43.675,34.074c3.192,1.859,4.3,5.954,2.459,9.143
		c-1.84,3.193-5.952,4.3-9.143,2.46c-3.192-1.856-4.298-5.951-2.459-9.143C36.391,33.306,40.483,32.216,43.675,34.074z"/>
</g>
</svg>
