<?xml version="1.0" encoding="utf-8"?>
<!-- Generator: Adobe Illustrator 16.0.0, SVG Export Plug-In . SVG Version: 6.00 Build 0)  -->
<!DOCTYPE svg PUBLIC "-//W3C//DTD SVG 1.1//EN" "http://www.w3.org/Graphics/SVG/1.1/DTD/svg11.dtd">
<svg version="1.1" id="Layer_1" xmlns="http://www.w3.org/2000/svg" xmlns:xlink="http://www.w3.org/1999/xlink" x="0px" y="0px"
	 width="60px" height="60px" viewBox="0 0 60 60" enable-background="new 0 0 60 60" xml:space="preserve">
<g>
	<path id="path5169" opacity="0.7854" fill="#3FB5AD" enable-background="new    " d="M28.082,14.755
		c-4.281,2.478-9.097,3.281-13.787,2.634L1.932,24.515c4.324,1.788,10.729,3.322,13.182,7.547c2.478,4.281,3.281,9.099,2.634,13.786
		l7.124,12.365c1.787-4.323,3.324-10.73,7.549-13.182c4.28-2.48,9.096-3.281,13.785-2.635l12.363-7.125
		c-4.322-1.789-10.73-3.295-13.18-7.547c-2.451-4.252-3.282-9.096-2.634-13.787L35.63,1.575
		C33.827,5.898,32.307,12.319,28.082,14.755z M34.602,27.4c1.379,2.394,0.549,5.465-1.845,6.857c-2.394,1.38-5.478,0.55-6.857-1.846
		c-1.381-2.391-0.55-5.462,1.845-6.856C30.138,24.162,33.207,24.979,34.602,27.4z"/>
</g>
</svg>
